<svg xmlns="http://www.w3.org/2000/svg" viewBox="0 0 1521.82 376.83"><defs><style>.cls-1{fill:#fff;}</style></defs><title>Middel 2</title><g id="Laag_2" data-name="Laag 2"><g id="Laag_1-2" data-name="Laag 1"><path class="cls-1" d="M1521.82.4l-.33-.4-119,97.58-50,.24-57.8,61.4-.06-60.13-294.08-.25,30.49-51.43-.31-.17-44.29,51.6H920.87l-11.15,19.32L898.58,98.84l-225.32,0a56.25,56.25,0,0,0-50.68,31.94l-4.3-4.31C603,111.17,585,102.25,564.62,99.79L497.1,40.15l-.28.34,46.69,58.57-147.69-.22-48.66-28.9-.26.27,29.69,28.63H268.65V122.6l29.57,36.62L193.54,66l.75,68.4L154.93,98.84h-62L.25,36.22,0,36.49,68.38,98.84H44.47L287.31,318l-.22-18.55,71.13,66.36.34-.39-71.82-94.52-.24-20,73.32,67V284.82h193c17.87,0,34.06-4.53,48.37-13.47l53.91,41.35.29-.24-24-29.35a81.39,81.39,0,0,0,41.9,11.09c23.22,0,43.37-8.38,59.9-24.91l.1-.1.09-.09c10.11-10.39,17.1-22,20.78-34.61.28-.88.55-1.77.8-2.66v53H839.6V183.52h9.94l17.85,31v66L839.45,330l.28.26,41.91-45.46h70.42V214.53l17.85-31h4.38v101.3H1147l-28.35,40.26.37.29,48.89-40.55h69L1178,376.49l.38.34,65.5-72.12.25,21.48L1452,97.35l-16.81.08ZM266.32,205.86l.49,40.69-24.92-27.23-.07.05,76.26,101.05L43.33,70.58l.17-.19,104.74,73.37.07-.1L121,118.48h26.37l67,60.61L213.67,111l74.63,68.11V157.46l32.32,26.47-32.33-46.29V118.48h51.83l.05,154.84Zm131.32,59.32H352.23V118.48H397l.69.67Zm357.29-79.24c-.22-.81-.44-1.62-.68-2.42h.68Zm65-22.06v101.3H774.56V163.88l-55.43-.1c13.92,11.9,19.08,28.5,19.08,45.83a62.14,62.14,0,0,1-2.86,19.15c-2.86,9.91-8.37,18.72-16.08,26.65-12.77,12.77-28,19.15-46,19.15-17.84,0-33-6.38-45.8-19.15l-.2-.2A64.54,64.54,0,0,1,613,233.56a79.88,79.88,0,0,1-8.59,10.21c-1.34,1.34-2.72,2.59-4.11,3.81L575,222.91l-.06.05,55.75,65.63-.2.16-42.37-32.5a70.43,70.43,0,0,1-35.32,8.93H410.6V126.09L374.22,91l.18-.19,72.2,44,0,0-21-16.08H456V219.78h86.93c1.64,0,3.28.07,4.91.07,8.82,0,17.42-1,24.64-8.21a26.86,26.86,0,0,0,8.14-19.49q0-10.59-7.71-19.27c-4.92-5.79-11.78-8.57-20.13-8.57H538.43V210.9H493V118.69s63.38.08,65.16.2l25.55,23.88L533,78.53l.19-.24L661,197.2a17.67,17.67,0,1,0,25,25,17.86,17.86,0,0,0,5.06-12.55c0-6.17-.88-18.5-24-22.68-23.34-4-30.38-22.24-30.38-31.93a36.46,36.46,0,0,1,36.55-36.55l149.86,0,26.67,45.4Zm112.46,45.41v55.89H897.92l14.61-21.41-.06-.05L859.9,302.49l-.19-.17L887,253.89v-44.6l-52.26-90.81h52.48l22.48,39,22.49-39H971l-11.13,16.78-.16-.08,46.82-54.08Zm138.17,55.89H993.93V163.88h-25l24.77-45.25h45v.06h.58V219.78h31.27Zm154.15,52.52-.26-.24,51.3-76.25.31-.46-.07-.05-21.15,24.5h-68.47l19-20.95-.05-.06-62.18,54.52-.26-.2,27.25-39.82,54.5-94.37h-99.75V172h56.43L1155,214.85h-30.11V222h57.29l-25.31,43.17h-77.81V118.69l196,0,.05,47.1-29.86,53.75h18.42l97.39-102.16,22-.1-8.74,10.5L1466.72,52l.22.27Z"/></g></g></svg>